<svg width="32" height="32" viewBox="0 0 32 32" fill="none" xmlns="http://www.w3.org/2000/svg">
<path fill-rule="evenodd" clip-rule="evenodd" d="M16 32C24.8366 32 32 24.8366 32 16C32 7.16344 24.8366 0 16 0C7.16344 0 0 7.16344 0 16C0 24.8366 7.16344 32 16 32Z" fill="#D2DEEC"/>
<path d="M12.9724 12.2C13.5804 11.9653 14.1724 11.6667 14.7484 11.304C15.3244 10.9307 15.8524 10.4667 16.3324 9.912H17.3884V21H15.9004V11.976C15.7724 12.0933 15.6124 12.216 15.4204 12.344C15.239 12.472 15.0364 12.5947 14.8124 12.712C14.599 12.8293 14.3697 12.9413 14.1244 13.048C13.8897 13.1547 13.6604 13.2453 13.4364 13.32L12.9724 12.2Z" fill="#1F1F1F"/>
</svg>
