<svg width="24" height="24" viewBox="0 0 24 24" fill="none" xmlns="http://www.w3.org/2000/svg">
<path fill-rule="evenodd" clip-rule="evenodd" d="M22.4348 4.55089H20.6878C20.9182 4.19426 21.0703 3.79394 21.1136 3.37056C21.2521 2.01751 20.5235 0.804584 19.2829 0.266837C18.1427 -0.227455 16.8612 -0.0253926 15.9385 0.793033L13.7326 2.7481C13.303 2.2886 12.6854 1.99981 12 1.99981C11.3134 1.99981 10.6948 2.28952 10.2651 2.75044L8.05634 0.792803C7.13211 -0.0256218 5.85121 -0.226905 4.71144 0.267112C3.47123 0.804905 2.74242 2.01824 2.88135 3.37125C2.92481 3.79431 3.07678 4.19444 3.30717 4.55089H1.5652C0.700733 4.55089 0 5.2362 0 6.08153V8.37751C0 8.80016 0.35039 9.14286 0.782624 9.14286H23.2174C23.6496 9.14286 24 8.8002 24 8.37751V6.08153C24 5.2362 23.2992 4.55089 22.4348 4.55089ZM9.65216 4.29579V4.55089H5.97046C4.99771 4.55089 4.23215 3.66407 4.4751 2.67366C4.58212 2.23749 4.90406 1.86568 5.32045 1.67746C5.89223 1.41902 6.5256 1.50199 7.00583 1.92706L9.65281 4.27324L9.6525 4.28275L9.65228 4.28889L9.65216 4.29579ZM17.952 4.55099C18.7675 4.55099 19.5023 3.96282 19.5606 3.16736C19.615 2.42498 19.178 1.80605 18.4337 1.58895C17.9151 1.43768 17.3541 1.60357 16.9531 1.95897L14.3471 4.26889L14.3474 4.28117V4.28118C14.3476 4.28608 14.3478 4.29097 14.3478 4.29589V4.55099H17.952ZM1.71429 10.8571V22.4229C1.71429 23.2939 2.39147 24 3.22688 24H10.2857V10.8571H1.71429ZM13.7143 24V10.8571H22.2857V22.4229C22.2857 23.2939 21.6085 24 20.7731 24H13.7143Z" fill="#ED2D23"/>
</svg>
