<svg width="32" height="32" viewBox="0 0 32 32" fill="none" xmlns="http://www.w3.org/2000/svg">
<path fill-rule="evenodd" clip-rule="evenodd" d="M16 32C24.8366 32 32 24.8366 32 16C32 7.16344 24.8366 0 16 0C7.16344 0 0 7.16344 0 16C0 24.8366 7.16344 32 16 32Z" fill="#D2DEEC"/>
<path d="M16.1004 19.912C17.0497 19.912 17.727 19.7253 18.1324 19.352C18.5484 18.9787 18.7564 18.4773 18.7564 17.848C18.7564 17.4427 18.671 17.1013 18.5004 16.824C18.3297 16.5467 18.1057 16.328 17.8284 16.168C17.551 15.9973 17.2257 15.88 16.8524 15.816C16.4897 15.7413 16.1164 15.704 15.7324 15.704H15.3484V14.488H15.8764C16.143 14.488 16.415 14.4613 16.6924 14.408C16.9804 14.3547 17.2417 14.2587 17.4764 14.12C17.711 13.9813 17.903 13.7947 18.0524 13.56C18.2017 13.3147 18.2764 13.0107 18.2764 12.648C18.2764 12.3493 18.223 12.0933 18.1164 11.88C18.0097 11.6667 17.8657 11.4907 17.6844 11.352C17.5137 11.2133 17.311 11.1173 17.0764 11.064C16.8524 11 16.6124 10.968 16.3564 10.968C15.8444 10.968 15.407 11.0427 15.0444 11.192C14.6924 11.3413 14.3937 11.496 14.1484 11.656L13.5724 10.52C13.7004 10.4347 13.8604 10.344 14.0524 10.248C14.255 10.1413 14.479 10.0453 14.7244 9.96C14.9697 9.87467 15.231 9.80533 15.5084 9.752C15.7964 9.688 16.095 9.656 16.4044 9.656C16.991 9.656 17.4977 9.73067 17.9244 9.88C18.351 10.0187 18.703 10.2213 18.9804 10.488C19.2577 10.744 19.4657 11.0533 19.6044 11.416C19.743 11.768 19.8124 12.152 19.8124 12.568C19.8124 13.144 19.647 13.64 19.3164 14.056C18.9857 14.4613 18.5857 14.7707 18.1164 14.984C18.4044 15.0693 18.6817 15.192 18.9484 15.352C19.215 15.512 19.4444 15.7147 19.6364 15.96C19.839 16.2053 19.999 16.488 20.1164 16.808C20.2444 17.128 20.3084 17.4853 20.3084 17.88C20.3084 18.36 20.223 18.808 20.0524 19.224C19.8924 19.6293 19.6364 19.9813 19.2844 20.28C18.943 20.5787 18.511 20.8133 17.9884 20.984C17.4657 21.1547 16.847 21.24 16.1324 21.24C15.855 21.24 15.567 21.2187 15.2684 21.176C14.9804 21.1333 14.7084 21.08 14.4524 21.016C14.1964 20.952 13.9724 20.888 13.7804 20.824C13.5884 20.76 13.4497 20.7067 13.3644 20.664L13.6524 19.368C13.8337 19.4533 14.1324 19.5653 14.5484 19.704C14.975 19.8427 15.4924 19.912 16.1004 19.912Z" fill="#1F1F1F"/>
</svg>
