<svg width="64" height="64" viewBox="0 0 64 64" fill="none" xmlns="http://www.w3.org/2000/svg">
<path fill-rule="evenodd" clip-rule="evenodd" d="M32 64C49.6731 64 64 49.6731 64 32C64 14.3269 49.6731 0 32 0C14.3269 0 0 14.3269 0 32C0 49.6731 14.3269 64 32 64Z" fill="#D2DEEC"/>
<path d="M28.2155 27C28.9755 26.7067 29.7155 26.3333 30.4355 25.88C31.1555 25.4133 31.8155 24.8333 32.4155 24.14H33.7355V38H31.8755V26.72C31.7155 26.8667 31.5155 27.02 31.2755 27.18C31.0488 27.34 30.7955 27.4933 30.5155 27.64C30.2488 27.7867 29.9621 27.9267 29.6555 28.06C29.3621 28.1933 29.0755 28.3067 28.7955 28.4L28.2155 27Z" fill="#1F1F1F"/>
</svg>
