<svg width="64" height="64" viewBox="0 0 64 64" fill="none" xmlns="http://www.w3.org/2000/svg">
<path fill-rule="evenodd" clip-rule="evenodd" d="M32 64C49.6731 64 64 49.6731 64 32C64 14.3269 49.6731 0 32 0C14.3269 0 0 14.3269 0 32C0 49.6731 14.3269 64 32 64Z" fill="#D2DEEC"/>
<path d="M35.6955 27.68C35.6955 28.16 35.5955 28.6267 35.3955 29.08C35.2088 29.52 34.9555 29.96 34.6355 30.4C34.3155 30.8267 33.9555 31.2533 33.5555 31.68C33.1555 32.0933 32.7555 32.5 32.3555 32.9C32.1288 33.1267 31.8621 33.3933 31.5555 33.7C31.2621 34.0067 30.9821 34.3267 30.7155 34.66C30.4488 34.9933 30.2221 35.3133 30.0355 35.62C29.8621 35.9267 29.7755 36.1933 29.7755 36.42H36.1555V38H27.7555C27.7421 37.92 27.7355 37.84 27.7355 37.76C27.7355 37.68 27.7355 37.6067 27.7355 37.54C27.7355 36.9133 27.8355 36.3333 28.0355 35.8C28.2488 35.2533 28.5221 34.74 28.8555 34.26C29.1888 33.78 29.5621 33.3267 29.9755 32.9C30.3888 32.4733 30.7955 32.06 31.1955 31.66C31.5288 31.34 31.8421 31.0267 32.1355 30.72C32.4421 30.4 32.7088 30.0867 32.9355 29.78C33.1755 29.46 33.3621 29.1333 33.4955 28.8C33.6421 28.4667 33.7155 28.1133 33.7155 27.74C33.7155 27.34 33.6488 27 33.5155 26.72C33.3955 26.44 33.2288 26.2067 33.0155 26.02C32.8021 25.8333 32.5488 25.7 32.2555 25.62C31.9755 25.5267 31.6755 25.48 31.3555 25.48C30.9688 25.48 30.6155 25.5333 30.2955 25.64C29.9755 25.7467 29.6888 25.8733 29.4355 26.02C29.1821 26.1533 28.9688 26.3 28.7955 26.46C28.6221 26.6067 28.4888 26.72 28.3955 26.8L27.4755 25.48C27.5955 25.3467 27.7755 25.1867 28.0155 25C28.2555 24.8 28.5421 24.6133 28.8755 24.44C29.2088 24.2667 29.5821 24.12 29.9955 24C30.4088 23.88 30.8555 23.82 31.3355 23.82C32.7888 23.82 33.8755 24.16 34.5955 24.84C35.3288 25.5067 35.6955 26.4533 35.6955 27.68Z" fill="#1F1F1F"/>
</svg>
