<svg width="64" height="64" viewBox="0 0 64 64" fill="none" xmlns="http://www.w3.org/2000/svg">
<path fill-rule="evenodd" clip-rule="evenodd" d="M32 64C49.6731 64 64 49.6731 64 32C64 14.3269 49.6731 0 32 0C14.3269 0 0 14.3269 0 32C0 49.6731 14.3269 64 32 64Z" fill="#D2DEEC"/>
<path d="M30.8755 36.64C32.0621 36.64 32.9088 36.4067 33.4155 35.94C33.9355 35.4733 34.1955 34.8467 34.1955 34.06C34.1955 33.5533 34.0888 33.1267 33.8755 32.78C33.6621 32.4333 33.3821 32.16 33.0355 31.96C32.6888 31.7467 32.2821 31.6 31.8155 31.52C31.3621 31.4267 30.8955 31.38 30.4155 31.38H29.9355V29.86H30.5955C30.9288 29.86 31.2688 29.8267 31.6155 29.76C31.9755 29.6933 32.3021 29.5733 32.5955 29.4C32.8888 29.2267 33.1288 28.9933 33.3155 28.7C33.5021 28.3933 33.5955 28.0133 33.5955 27.56C33.5955 27.1867 33.5288 26.8667 33.3955 26.6C33.2621 26.3333 33.0821 26.1133 32.8555 25.94C32.6421 25.7667 32.3888 25.6467 32.0955 25.58C31.8155 25.5 31.5155 25.46 31.1955 25.46C30.5555 25.46 30.0088 25.5533 29.5555 25.74C29.1155 25.9267 28.7421 26.12 28.4355 26.32L27.7155 24.9C27.8755 24.7933 28.0755 24.68 28.3155 24.56C28.5688 24.4267 28.8488 24.3067 29.1555 24.2C29.4621 24.0933 29.7888 24.0067 30.1355 23.94C30.4955 23.86 30.8688 23.82 31.2555 23.82C31.9888 23.82 32.6221 23.9133 33.1555 24.1C33.6888 24.2733 34.1288 24.5267 34.4755 24.86C34.8221 25.18 35.0821 25.5667 35.2555 26.02C35.4288 26.46 35.5155 26.94 35.5155 27.46C35.5155 28.18 35.3088 28.8 34.8955 29.32C34.4821 29.8267 33.9821 30.2133 33.3955 30.48C33.7555 30.5867 34.1021 30.74 34.4355 30.94C34.7688 31.14 35.0555 31.3933 35.2955 31.7C35.5488 32.0067 35.7488 32.36 35.8955 32.76C36.0555 33.16 36.1355 33.6067 36.1355 34.1C36.1355 34.7 36.0288 35.26 35.8155 35.78C35.6155 36.2867 35.2955 36.7267 34.8555 37.1C34.4288 37.4733 33.8888 37.7667 33.2355 37.98C32.5821 38.1933 31.8088 38.3 30.9155 38.3C30.5688 38.3 30.2088 38.2733 29.8355 38.22C29.4755 38.1667 29.1355 38.1 28.8155 38.02C28.4955 37.94 28.2155 37.86 27.9755 37.78C27.7355 37.7 27.5621 37.6333 27.4555 37.58L27.8155 35.96C28.0421 36.0667 28.4155 36.2067 28.9355 36.38C29.4688 36.5533 30.1155 36.64 30.8755 36.64Z" fill="#1F1F1F"/>
</svg>
